<svg xmlns="http://www.w3.org/2000/svg" xmlns:xlink="http://www.w3.org/1999/xlink" id="Layer_1" x="0" y="0" version="1.1" viewBox="0 0 504 108" xml:space="preserve" style="enable-background:new 0 0 504 108"><style type="text/css">.st0{fill:#fff}</style><g><path d="M288,72h36v36h-36V72z" class="st0"/><path d="M180,72h36v36h-36V72z" class="st0"/><path d="M252,0h36v36h-36V0z" class="st0"/><path d="M216,36h36v36h-36V36z" class="st0"/><path d="M180,72h36v36h-36V72z" class="st0"/></g><path d="M144,0h36v36h-36V0z" class="st0"/><g><path d="M252,72h36v36h-36V72z" class="st0"/><path d="M144,72h36v36h-36V72z" class="st0"/><path d="M468,72h36v36h-36V72z" class="st0"/></g><g><path d="M432,0h36v72h-36V0z" class="st0"/><path d="M396,36h36v36h-36V36z" class="st0"/><path d="M360,72h36v36h-36V72z" class="st0"/></g><path d="M288,36h36v36h-36V36z" class="st0"/><g><path d="M180,36h36v36h-36V36z" class="st0"/><path d="M144,72h36v36h-36V72z" class="st0"/><path d="M72,36h36v72H72V36z" class="st0"/><path d="M108,72h36v36h-36V72z" class="st0"/><path d="M0,72h36v36H0V72z" class="st0"/></g></svg>